<?xml version="1.0" encoding="iso-8859-1"?>
<!-- Generator: Adobe Illustrator 19.0.0, SVG Export Plug-In . SVG Version: 6.00 Build 0)  -->
<svg version="1.1" id="Capa_1" xmlns="http://www.w3.org/2000/svg" xmlns:xlink="http://www.w3.org/1999/xlink" x="0px" y="0px"
	 viewBox="0 0 512.002 512.002" style="enable-background:new 0 0 512.002 512.002;" xml:space="preserve">
<g>
	<g>
		<path d="M257.749,195.081H99.824c-4.143,0-7.5,3.357-7.5,7.5s3.357,7.5,7.5,7.5h157.925c4.142,0,7.5-3.357,7.5-7.5
			S261.891,195.081,257.749,195.081z"/>
	</g>
</g>
<g>
	<g>
		<path d="M276.296,229.964H99.824c-4.143,0-7.5,3.357-7.5,7.5c0,4.142,3.357,7.5,7.5,7.5h176.472c4.143,0,7.5-3.357,7.5-7.5
			S280.438,229.964,276.296,229.964z"/>
	</g>
</g>
<g>
	<g>
		<path d="M276.296,264.847H99.824c-4.143,0-7.5,3.357-7.5,7.5c0,4.143,3.357,7.5,7.5,7.5h176.472c4.143,0,7.5-3.357,7.5-7.5
			S280.438,264.847,276.296,264.847z"/>
	</g>
</g>
<g>
	<g>
		<path d="M276.296,299.731H99.824c-4.143,0-7.5,3.357-7.5,7.5s3.357,7.5,7.5,7.5h176.472c4.143,0,7.5-3.357,7.5-7.5
			S280.438,299.731,276.296,299.731z"/>
	</g>
</g>
<g>
	<g>
		<path d="M276.296,334.615H99.824c-4.143,0-7.5,3.357-7.5,7.5c0,4.142,3.357,7.5,7.5,7.5h176.472c4.143,0,7.5-3.358,7.5-7.5
			C283.795,337.972,280.438,334.615,276.296,334.615z"/>
	</g>
</g>
<g>
	<g>
		<path d="M276.296,369.499H99.824c-4.143,0-7.5,3.357-7.5,7.5c0,4.142,3.357,7.5,7.5,7.5h176.472c4.143,0,7.5-3.357,7.5-7.5
			S280.438,369.499,276.296,369.499z"/>
	</g>
</g>
<g>
	<g>
		<path d="M276.296,404.383H99.824c-4.143,0-7.5,3.357-7.5,7.5s3.357,7.5,7.5,7.5h176.472c4.143,0,7.5-3.357,7.5-7.5
			S280.438,404.383,276.296,404.383z"/>
	</g>
</g>
<g>
	<g>
		<path d="M72.204,195.081h-0.573c-4.143,0-7.5,3.357-7.5,7.5s3.357,7.5,7.5,7.5h0.573c4.143,0,7.5-3.357,7.5-7.5
			S76.346,195.081,72.204,195.081z"/>
	</g>
</g>
<g>
	<g>
		<path d="M72.204,229.964h-0.573c-4.143,0-7.5,3.357-7.5,7.5c0,4.142,3.357,7.5,7.5,7.5h0.573c4.143,0,7.5-3.357,7.5-7.5
			S76.346,229.964,72.204,229.964z"/>
	</g>
</g>
<g>
	<g>
		<path d="M72.204,264.847h-0.573c-4.143,0-7.5,3.357-7.5,7.5c0,4.143,3.357,7.5,7.5,7.5h0.573c4.143,0,7.5-3.357,7.5-7.5
			S76.346,264.847,72.204,264.847z"/>
	</g>
</g>
<g>
	<g>
		<path d="M72.204,299.731h-0.573c-4.143,0-7.5,3.357-7.5,7.5s3.357,7.5,7.5,7.5h0.573c4.143,0,7.5-3.357,7.5-7.5
			S76.346,299.731,72.204,299.731z"/>
	</g>
</g>
<g>
	<g>
		<path d="M72.204,334.615h-0.573c-4.143,0-7.5,3.357-7.5,7.5c0,4.142,3.357,7.5,7.5,7.5h0.573c4.143,0,7.5-3.358,7.5-7.5
			C79.703,337.972,76.346,334.615,72.204,334.615z"/>
	</g>
</g>
<g>
	<g>
		<path d="M72.204,369.499h-0.573c-4.143,0-7.5,3.357-7.5,7.5c0,4.142,3.357,7.5,7.5,7.5h0.573c4.143,0,7.5-3.357,7.5-7.5
			S76.346,369.499,72.204,369.499z"/>
	</g>
</g>
<g>
	<g>
		<path d="M72.204,404.383h-0.573c-4.143,0-7.5,3.357-7.5,7.5s3.357,7.5,7.5,7.5h0.573c4.143,0,7.5-3.357,7.5-7.5
			S76.346,404.383,72.204,404.383z"/>
	</g>
</g>
<g>
	<g>
		<path d="M386.272,75.565c-7.83-7.828-20.499-7.83-28.33,0.001l-19.138,19.139l-3.153-3.154c-7.812-7.81-20.517-7.811-28.33,0
			c-7.81,7.809-7.81,20.517,0,28.328l17.32,17.32c7.827,7.824,20.495,7.829,28.328-0.002l33.304-33.305
			C394.082,96.082,394.082,83.374,386.272,75.565z M375.666,93.287l-33.302,33.304c-1.947,1.947-5.135,1.985-7.118,0.002
			l-17.318-17.318c-1.962-1.963-1.962-5.155-0.001-7.116s5.155-1.964,7.117,0l8.457,8.457c2.928,2.926,7.677,2.929,10.607-0.001
			l24.441-24.441c1.959-1.963,5.153-1.964,7.116,0C377.627,88.133,377.627,91.325,375.666,93.287z"/>
	</g>
</g>
<g>
	<g>
		<path d="M414.98,326.035h-38.222c-4.143,0-7.5,3.357-7.5,7.5s3.358,7.5,7.5,7.5h38.222c4.143,0,7.5-3.357,7.5-7.5
			S419.122,326.035,414.98,326.035z"/>
	</g>
</g>
<g>
	<g>
		<path d="M499.505,497.931l-14.037-184.041c-0.746-9.801-9.031-17.477-18.859-17.477H450.1v-8.893
			c0-29.903-24.328-54.231-54.231-54.231c-15.526,0-29.538,6.568-39.434,17.06V205.12c7.011-2.94,12.938-9.449,16.818-10.486
			c5.861-1.568,17.663,3.817,27.251-1.73c9.662-5.59,10.934-18.583,15.09-22.739c4.162-4.165,17.144-5.418,22.741-15.091
			c5.544-9.584,0.165-21.408,1.729-27.25c1.449-5.428,12.112-13.233,12.112-24.452c0-11.211-10.672-19.058-12.112-24.451
			c-1.942-7.271,6.8-23.755-8.039-33.78c-3.434-2.319-8.095-1.415-10.413,2.019c-2.317,3.433-1.414,8.095,2.019,10.413
			c2.446,1.652,2.747,2.646,1.772,10.876c-0.528,4.451-1.127,9.496,0.169,14.346c1.255,4.692,4.241,8.666,6.876,12.172
			c2.217,2.948,4.728,6.291,4.728,8.408c0,4.483-9.224,11.681-11.604,20.579c-2.366,8.858,1.8,20.12-0.221,23.611
			c-2.125,3.675-13.804,5.436-20.364,11.995c-6.491,6.493-8.365,18.263-11.994,20.364c-3.456,1.998-14.737-2.144-23.611,0.22
			c-8.736,2.336-16.184,11.605-20.579,11.605c-4.086,0-12.544-9.455-20.579-11.605c-9.005-2.407-20.069,1.826-23.612-0.222
			c-3.675-2.126-5.435-13.803-11.994-20.363c-6.491-6.49-18.263-8.366-20.364-11.994c-2.013-3.48,2.143-14.77-0.22-23.611
			c-2.437-9.111-12.32-16.698-11.553-21.106c0.003-0.02,0.008-0.04,0.011-0.059c0.922-4.862,9.251-11.424,11.542-19.992
			c2.366-8.857-1.8-20.12,0.221-23.611c2.125-3.676,13.804-5.436,20.364-11.995c6.491-6.493,8.366-18.263,11.994-20.364
			c3.486-2.017,14.732,2.15,23.611-0.22C336.958,24.267,344.406,15,348.801,15c4.483,0,11.678,9.224,20.579,11.604
			c8.854,2.365,20.122-1.799,23.611,0.221c0.831,0.48,1.773,1.751,2.798,3.774c1.871,3.695,6.382,5.174,10.08,3.301
			c3.694-1.872,5.173-6.385,3.301-10.08c-10.183-20.098-27.764-9.519-35.917-11.708C367.831,10.664,360.02,0,348.801,0
			c-11.211,0-19.058,10.671-24.451,12.112c-5.86,1.56-17.675-3.814-27.251,1.729c-9.571,5.538-11.034,18.684-15.09,22.739
			c-4.155,4.157-17.15,5.427-22.741,15.091c-5.544,9.584-0.166,21.409-1.729,27.25c-0.866,3.244-5.715,8.128-8.833,13.518h-34.765
			c-3.349-13.165-15.302-22.932-29.495-22.932c-14.193,0-26.145,9.768-29.494,22.932H28.255c-8.71,0-15.796,7.086-15.796,15.795
			v286.15c0,4.143,3.357,7.5,7.5,7.5s7.5-3.357,7.5-7.5v-286.15c0-0.438,0.357-0.795,0.796-0.795H154.95
			c3.352,13.158,15.313,22.923,29.492,22.932h0.005h0.001c14.365,0,26.407-10.12,29.496-22.932h31.947
			c2.038,8.915,10.43,15.826,11.648,20.388c1.539,5.757-3.79,17.713,1.73,27.25c5.591,9.664,18.582,10.933,22.739,15.09
			c4.161,4.158,5.422,17.146,15.091,22.741c9.567,5.535,21.47,0.176,27.25,1.729c3.864,1.032,10.095,7.753,17.062,10.59
			c0.008,0.003,0.016,0.007,0.016,0.007l0.008,91.181h-17.673c-9.477,0-17.463,7.401-18.181,16.847l-13.605,178.367
			c-0.166-0.113-0.334-0.227-0.503-0.342c-5.434-3.708-12.196-8.322-24.793-8.322c-22.915,0-24.104,14.036-41.122,14.036
			c-16.946,0-18.222-14.036-41.123-14.036c-22.914,0-24.104,14.036-41.121,14.036c-16.943,0-18.224-14.036-41.121-14.036
			C79.28,482.965,78.094,497,61.078,497c-15.105,0-17.083-10.585-33.62-13.43v-54.187c0-4.143-3.357-7.5-7.5-7.5s-7.5,3.357-7.5,7.5
			v58.534c0,5.337,4.225,9.778,9.614,10.11C36.687,498.937,39.207,512,61.078,512c22.914,0,24.099-14.036,41.116-14.036
			c16.945,0,18.222,14.036,41.121,14.036c22.915,0,24.103-14.036,41.121-14.036c16.945,0,18.224,14.036,41.123,14.036
			c22.915,0,24.104-14.036,41.122-14.036c15.532,0,16.976,10.885,34.334,13.536c1.137,0.319,2.317,0.501,3.516,0.501h30.18
			c4.143,0,7.5-3.357,7.5-7.5s-3.357-7.5-7.5-7.5h-28.1l13.928-182.599c0.127-1.675,1.544-2.987,3.225-2.987h17.875v13.641
			c0,4.143,3.357,7.5,7.5,7.5s7.5-3.357,7.5-7.5v-13.641h78.465v13.641c0,4.143,3.357,7.5,7.5,7.5s7.5-3.357,7.5-7.5v-13.641h16.509
			c2.034,0,3.749,1.589,3.903,3.617l13.879,181.97H369.709c-4.143,0-7.5,3.357-7.5,7.5s3.357,7.5,7.5,7.5H486.47
			C494.075,512,500.084,505.512,499.505,497.931z M199.88,99.938c0,8.614-7.089,15.433-15.432,15.433
			c-8.518,0-15.433-6.931-15.433-15.433c0-8.51,6.923-15.432,15.433-15.432c8.507,0,15.428,6.918,15.433,15.422L199.88,99.938z
			 M356.636,296.414v-8.893c0-21.633,17.599-39.232,39.232-39.232c21.633,0,39.232,17.599,39.232,39.232v8.893H356.636z"/>
	</g>
</g>
<g>
</g>
<g>
</g>
<g>
</g>
<g>
</g>
<g>
</g>
<g>
</g>
<g>
</g>
<g>
</g>
<g>
</g>
<g>
</g>
<g>
</g>
<g>
</g>
<g>
</g>
<g>
</g>
<g>
</g>
</svg>
